<?xml version="1.0" encoding="UTF-8"?>
<svg id="Layer_1" xmlns="http://www.w3.org/2000/svg" viewBox="0 0 35 35">
  <defs>
    <style>
      .cls-1 {
        fill: #fff;
      }

      @keyframes blink {
        25% {
          opacity: 0.5;
        }
        50% {
          opacity: 0;
        }
        75% {
          opacity: 0.5;
        }
      }

      .blink {animation: blink 1.5s linear infinite; }

    </style>
  </defs>
  <g id="Layer_2">
    <path class="cls-1" d="M25.22,15.37c-.42,0-.84.16-1.16.37-.26-.84-1.05-1.42-2-1.42s-.84.16-1.16.37c-.26-.84-1.05-1.42-2-1.42s-.74.11-1.05.32v-5.05c0-.58-.21-1.1-.63-1.47-.47-.47-1.21-.74-1.89-.58-1,.21-1.68,1.1-1.68,2.16v12.2l-1.42-1.63c-.95-1.05-2.52-1.21-3.63-.32l-.37.32c-.58.47-.74,1.37-.37,2l3.73,6.05c1.58,2.73,4.36,4.47,7.31,4.47,4.63,0,8.41-3.79,8.41-8.41v-5.78c0-1.16-.95-2.1-2.1-2.1h0v-.05ZM18.91,30.62c-2.52,0-4.99-1.52-6.36-3.94l-3.73-6.1c-.11-.21-.11-.47.11-.63l.37-.32c.63-.53,1.63-.42,2.16.21l2.37,2.68c.16.16.37.21.58.16.21-.05.32-.26.32-.47v-13.62c0-.53.37-1,.84-1.1.37-.05.68,0,.95.26.21.21.32.47.32.74v10.51c0,.32.21.53.53.53s.53-.21.53-.53v-3.68c0-.58.47-1.05,1.05-1.05s1.05.47,1.05,1.05v3.68c0,.32.21.53.53.53s.53-.21.53-.53v-2.63c0-.58.47-1.05,1.05-1.05s1.05.47,1.05,1.05v2.63c0,.32.21.53.53.53s.53-.21.53-.53v-1.58c0-.58.47-1.05,1.05-1.05s1.05.47,1.05,1.05v5.78c0,4.05-3.31,7.36-7.36,7.36h0v.05Z"/>
    <path class="cls-1 blink" d="M15.76,5.91c.32,0,.53-.21.53-.53v-1.58c0-.32-.21-.53-.53-.53s-.53.21-.53.53v1.58c0,.32.21.53.53.53Z"/>
    <path class="cls-1 blink" d="M18.91,8.01c0,.32.21.53.53.53h1.58c.32,0,.53-.21.53-.53s-.21-.53-.53-.53h-1.58c-.32,0-.53.21-.53.53Z"/>
    <path class="cls-1 blink" d="M10.5,8.54h1.58c.32,0,.53-.21.53-.53s-.21-.53-.53-.53h-1.58c-.32,0-.53.21-.53.53s.21.53.53.53Z"/>
    <path class="cls-1 blink" d="M12.76,6.28c.11.11.26.16.37.16s.26,0,.37-.16c.21-.21.21-.53,0-.74l-1.05-1.05c-.21-.21-.53-.21-.74,0s-.21.53,0,.74c0,0,1.05,1.05,1.05,1.05Z"/>
    <path class="cls-1 blink" d="M18.39,6.43c.16,0,.26,0,.37-.16l1.05-1.05c.21-.21.21-.53,0-.74s-.53-.21-.74,0l-1.05,1.05c-.21.21-.21.53,0,.74.11.11.26.16.37.16Z"/>
  </g>
</svg>